# xmcd CD database file
#
# Track frame offsets:
#	224
#	14214
#	28889
#	41070
#	57630
#	73481
#
# Disc length: 1169 seconds
#
# Revision: 0
# Processed by: cddbd v1.5.2PL0 Copyright (c) Steve Scherf et al.
# Submitted via: CDex 1.51
#
DISCID=62048f06
DTITLE=Trailor Choir - Off The Hillbilly Hook
DYEAR=2009
DGENRE=Country
TTITLE0=Rockin' The Beer Gut
TTITLE1=Rollin' Through The Sunshine
TTITLE2=In My Next 5 Beers
TTITLE3=What Would You Say
TTITLE4=Last Man Standing
TTITLE5=Off The Hillbilly Hook
EXTD=YEAR: 2009
EXTT0=
EXTT1=
EXTT2=
EXTT3=
EXTT4=
EXTT5=
PLAYORDER=
